# xmcd
#
# Track frame offsets:
#	150
#	17852
#	42731
#	69019
#	96727
#	113775
#	153756
#	181964
#	209997
#	226984
#	240982
#
# Disc length: 3514 seconds
# Revision: 0
# Processed by: cddbd v1.5.2PL0 Copyright (c) Steve Scherf et al.
# Submitted via: dBpowerAMP V12.0
#
DISCID=940db80b
DTITLE=Dave Brewer - Night Walkin'
DYEAR=2013
DGENRE=Blues
TTITLE0=Learn How To Love
TTITLE1=Goin' Out Night Walkin'
TTITLE2=I Won't Ever Let You Down
TTITLE3=The Same Things
TTITLE4=She's On My Mind
TTITLE5=Swamp Dog
TTITLE6=No One To Hold
TTITLE7=I Can't Make A Sound
TTITLE8=Young And Coole
TTITLE9=Anytime You Call Me
TTITLE10=Runnin' With That Man
EXTD=
EXTT0=
EXTT1=
EXTT2=
EXTT3=
EXTT4=
EXTT5=
EXTT6=
EXTT7=
EXTT8=
EXTT9=
EXTT10=
PLAYORDER=
